<svg width="192" height="51" viewBox="0 0 192 51" fill="none" xmlns="http://www.w3.org/2000/svg">
<path d="M191.25 45.25C191.25 48.0114 189.011 50.25 186.25 50.25H5.25C2.48857 50.25 0.25 48.0114 0.25 45.25V5.25C0.25 2.48858 2.48858 0.25 5.25 0.25H16.0427C17.3017 0.25 18.5143 0.724914 19.4384 1.57989L26.6441 8.24671C28.6711 10.1222 31.8348 9.99915 33.7101 7.97197L39.3691 1.85463C40.3155 0.831623 41.6458 0.25 43.0395 0.25H186.25C189.011 0.25 191.25 2.48858 191.25 5.25V45.25Z" fill="#FF4C1F"/>
<path d="M186.25 50.25V50H5.25V50.25V50.5H186.25V50.25ZM0.25 45.25H0.5V5.25H0.25H0V45.25H0.25ZM5.25 0.25V0.5H16.0427V0.25V0H5.25V0.25ZM19.4384 1.57989L19.2686 1.7634L26.4743 8.43021L26.6441 8.24671L26.8139 8.0632L19.6081 1.39639L19.4384 1.57989ZM33.7101 7.97197L33.8936 8.14174L39.5526 2.0244L39.3691 1.85463L39.1856 1.68486L33.5265 7.8022L33.7101 7.97197ZM43.0395 0.25V0.5H186.25V0.25V0H43.0395V0.25ZM191.25 5.25H191V45.25H191.25H191.5V5.25H191.25ZM186.25 0.25V0.5C188.873 0.5 191 2.62665 191 5.25H191.25H191.5C191.5 2.35051 189.149 0 186.25 0V0.25ZM39.3691 1.85463L39.5526 2.0244C40.4517 1.05254 41.7155 0.5 43.0395 0.5V0.25V0C41.5762 0 40.1793 0.610705 39.1856 1.68486L39.3691 1.85463ZM26.6441 8.24671L26.4743 8.43021C28.6027 10.3994 31.9245 10.2703 33.8936 8.14174L33.7101 7.97197L33.5265 7.8022C31.745 9.72802 28.7396 9.84488 26.8139 8.0632L26.6441 8.24671ZM16.0427 0.25V0.5C17.2387 0.5 18.3907 0.951168 19.2686 1.7634L19.4384 1.57989L19.6081 1.39639C18.6379 0.498659 17.3646 0 16.0427 0V0.25ZM0.25 5.25H0.5C0.5 2.62665 2.62665 0.5 5.25 0.5V0.25V0C2.35051 0 0 2.35051 0 5.25H0.25ZM5.25 50.25V50C2.62665 50 0.5 47.8734 0.5 45.25H0.25H0C0 48.1495 2.3505 50.5 5.25 50.5V50.25ZM186.25 50.25V50.5C189.149 50.5 191.5 48.1495 191.5 45.25H191.25H191C191 47.8734 188.873 50 186.25 50V50.25Z" fill="url(#paint0_linear_1505_2276)"/>
<defs>
<linearGradient id="paint0_linear_1505_2276" x1="0.250003" y1="66.75" x2="39.75" y2="14.75" gradientUnits="userSpaceOnUse">
<stop stop-color="white"/>
<stop offset="1" stop-color="white" stop-opacity="0"/>
</linearGradient>
</defs>
</svg>
