<svg width="194" height="354" viewBox="0 0 194 354" fill="none" xmlns="http://www.w3.org/2000/svg">
<rect width="49.9786" height="86.2765" fill="#D92B00"/>
<rect y="104.041" width="49.9786" height="177.628" fill="#D92B00"/>
<rect x="191.27" y="292.699" width="48.7983" height="280.911" transform="rotate(-180 191.27 292.699)" fill="#D92B00"/>
<rect x="120.031" y="248.104" width="44.5971" height="120.033" transform="rotate(90 120.031 248.104)" fill="#D92B00"/>
<rect x="71.2461" y="44.6025" width="44.5971" height="120.033" transform="rotate(-90 71.2461 44.6025)" fill="#D92B00"/>
<rect x="71.2461" width="48.7983" height="280.911" fill="#D92B00"/>
<path d="M10.7629 343.952C9.09697 343.952 7.63394 343.749 6.37381 343.344C5.11368 342.916 4.14188 342.318 3.45842 341.549C2.77496 340.781 2.43323 339.894 2.43323 338.89C2.43323 338.228 2.68952 337.716 3.20212 337.353C3.73607 336.989 4.47293 336.797 5.41269 336.776C5.60491 338.1 6.1709 339.125 7.11066 339.851C8.05042 340.578 9.2892 340.941 10.827 340.941C12.3007 340.941 13.4327 340.642 14.2229 340.044C15.0345 339.446 15.4403 338.591 15.4403 337.481C15.4403 336.584 15.0452 335.857 14.255 335.302C13.4861 334.725 12.1192 334.17 10.1542 333.636C7.54851 332.91 5.67967 332.034 4.54768 331.009C3.4157 329.984 2.84971 328.649 2.84971 327.005C2.84971 325.104 3.56521 323.609 4.99621 322.519C6.44856 321.43 8.43487 320.885 10.9551 320.885C13.0482 320.885 14.8103 321.377 16.2413 322.359C17.6936 323.342 18.6868 324.709 19.2207 326.46C18.9431 326.738 18.548 326.983 18.0354 327.197C17.5228 327.41 17.0636 327.517 16.6578 327.517C16.2947 327.517 16.0063 327.442 15.7928 327.293C15.5792 327.122 15.3656 326.844 15.152 326.46C14.2977 324.73 12.8987 323.865 10.9551 323.865C8.28536 323.865 6.95048 324.805 6.95048 326.684C6.95048 327.304 7.07863 327.816 7.33492 328.222C7.59122 328.606 8.03974 328.959 8.68049 329.279C9.32123 329.6 10.261 329.952 11.4998 330.336C13.6997 331.02 15.3656 331.661 16.4976 332.259C17.6296 332.835 18.4305 333.476 18.9004 334.181C19.3702 334.864 19.6052 335.74 19.6052 336.808C19.6052 338.218 19.2421 339.467 18.5159 340.556C17.7897 341.624 16.7539 342.457 15.4083 343.055C14.0841 343.653 12.5356 343.952 10.7629 343.952ZM52.783 321.206C52.8684 321.676 52.9112 322.071 52.9112 322.391C52.9112 323.011 52.7937 323.47 52.5587 323.769C52.3452 324.046 52.0034 324.185 51.5336 324.185H46.728V343.632H42.6913V324.185H36.6362V321.206H52.783ZM80.0525 343.952C74.1362 343.952 71.1781 341.165 71.1781 335.59V321.206H75.2469V336.167C75.2469 337.748 75.6527 338.944 76.4643 339.755C77.2759 340.546 78.472 340.941 80.0525 340.941C81.6757 340.941 82.8717 340.546 83.6406 339.755C84.4309 338.965 84.826 337.769 84.826 336.167V321.206H88.8947V335.59C88.8947 338.431 88.1686 340.535 86.7162 341.902C85.2639 343.269 83.0426 343.952 80.0525 343.952ZM116.381 321.206C119.756 321.206 122.383 322.188 124.263 324.153C126.163 326.118 127.114 328.873 127.114 332.419C127.114 334.683 126.676 336.658 125.8 338.346C124.925 340.033 123.675 341.336 122.052 342.254C120.45 343.173 118.56 343.632 116.381 343.632H109.109V321.206H116.381ZM115.933 340.716C118.218 340.716 119.97 340.012 121.187 338.602C122.426 337.171 123.045 335.121 123.045 332.451C123.045 326.898 120.674 324.121 115.933 324.121H113.146V340.716H115.933ZM147.48 321.206H151.517V343.632H147.48V321.206ZM181.363 343.952C178.33 343.952 175.97 342.938 174.283 340.909C172.617 338.858 171.784 335.986 171.784 332.291C171.784 328.66 172.617 325.851 174.283 323.865C175.97 321.879 178.33 320.885 181.363 320.885C184.396 320.885 186.745 321.879 188.411 323.865C190.099 325.851 190.942 328.66 190.942 332.291C190.942 335.986 190.099 338.858 188.411 340.909C186.745 342.938 184.396 343.952 181.363 343.952ZM181.363 340.909C183.2 340.909 184.556 340.215 185.432 338.826C186.329 337.417 186.778 335.238 186.778 332.291C186.778 329.407 186.34 327.293 185.464 325.947C184.588 324.602 183.221 323.929 181.363 323.929C179.505 323.929 178.138 324.602 177.262 325.947C176.387 327.293 175.949 329.407 175.949 332.291C175.949 335.238 176.387 337.417 177.262 338.826C178.16 340.215 179.526 340.909 181.363 340.909Z" fill="white"/>
</svg>
