<svg width="77" height="25" viewBox="0 0 77 25" fill="none" xmlns="http://www.w3.org/2000/svg">
<path d="M9.94609 8.8289V11.469H16.3183C16.0035 15.1712 12.893 16.75 9.95688 16.75C6.20046 16.75 2.92253 13.8233 2.92253 9.72119C2.92253 5.72512 6.04723 2.64759 9.96513 2.64759C12.9879 2.64759 14.7691 4.55569 14.7691 4.55569L16.6359 2.64141C16.6359 2.64141 14.2398 9.31458e-10 9.86971 9.31458e-10C4.30498 -7.59991e-05 0 4.65063 0 9.67403C0 14.5964 4.04955 19.3962 10.0116 19.3962C15.2552 19.3962 19.0935 15.8392 19.0935 10.5792C19.0935 9.46956 18.9308 8.82821 18.9308 8.82821L9.94609 8.8289ZM26.2911 6.91692C22.6043 6.91692 19.9622 9.77109 19.9622 13.0998C19.9622 16.4777 22.5249 19.3849 26.3344 19.3849C29.783 19.3849 32.6082 16.7748 32.6082 13.1723C32.6082 9.04337 29.3218 6.91692 26.2911 6.91692ZM26.3277 9.36561C28.1407 9.36561 29.8588 10.8171 29.8588 13.1559C29.8588 15.445 28.1481 16.9379 26.3194 16.9379C24.3102 16.9379 22.7251 15.3444 22.7251 13.1377C22.7251 10.9783 24.2905 9.36561 26.3277 9.36561ZM40.0555 6.91692C36.3687 6.91692 33.7266 9.77109 33.7266 13.0998C33.7266 16.4777 36.2893 19.3849 40.0988 19.3849C43.5474 19.3849 46.3726 16.7748 46.3726 13.1723C46.3726 9.04337 43.0862 6.91692 40.0555 6.91692ZM40.0921 9.36561C41.9051 9.36561 43.6232 10.8171 43.6232 13.1559C43.6232 15.445 41.9125 16.9379 40.0838 16.9379C38.0746 16.9379 36.4895 15.3444 36.4895 13.1377C36.4895 10.9783 38.0549 9.36561 40.0921 9.36561ZM53.5563 6.92348C50.1723 6.92348 47.5124 9.85839 47.5124 13.1525C47.5124 16.9048 50.5961 19.3931 53.4979 19.3931C55.2922 19.3931 56.2463 18.6878 56.9507 17.8783V19.1076C56.9507 21.2584 55.6319 22.5464 53.6413 22.5464C51.7183 22.5464 50.7538 21.1305 50.4186 20.327L47.999 21.3286C48.8574 23.1258 50.5853 25 53.6613 25C57.0259 25 59.5903 22.9015 59.5903 18.5004V7.29831H56.9508V8.35432C56.1391 7.48828 55.0292 6.92348 53.5563 6.92348ZM53.8012 9.36721C55.4603 9.36721 57.1639 10.7701 57.1639 13.1657C57.1639 15.6007 55.4639 16.9427 53.7645 16.9427C51.9605 16.9427 50.2818 15.4922 50.2818 13.1888C50.2818 10.7955 52.0252 9.36721 53.8012 9.36721ZM71.3264 6.9086C68.1343 6.9086 65.4541 9.42346 65.4541 13.1343C65.4541 17.061 68.4415 19.3898 71.633 19.3898C74.2966 19.3898 75.9314 17.9468 76.9071 16.6539L74.7308 15.22C74.1661 16.0879 73.2219 16.9361 71.6463 16.9361C69.8765 16.9361 69.0627 15.9764 68.5585 15.0468L77 11.5783L76.5618 10.5618C75.7463 8.57131 73.8437 6.9086 71.3264 6.9086ZM71.4364 9.30615C72.5866 9.30615 73.4144 9.91169 73.7659 10.6378L68.1286 12.971C67.8856 11.1646 69.6138 9.30615 71.4364 9.30615ZM61.4297 19.0197H64.2025V0.644707H61.4297V19.0197Z" fill="white"/>
</svg>
