<svg width="296" height="108" viewBox="0 0 296 108" fill="none" xmlns="http://www.w3.org/2000/svg">
<path d="M91.5141 107.35C89.6941 107.35 88.0957 107.129 86.7191 106.685C85.3424 106.219 84.2807 105.565 83.5341 104.725C82.7874 103.885 82.4141 102.917 82.4141 101.82C82.4141 101.097 82.6941 100.537 83.2541 100.14C83.8374 99.7437 84.6424 99.5337 85.6691 99.5104C85.8791 100.957 86.4974 102.077 87.5241 102.87C88.5507 103.664 89.9041 104.06 91.5841 104.06C93.1941 104.06 94.4307 103.734 95.2941 103.08C96.1807 102.427 96.6241 101.494 96.6241 100.28C96.6241 99.3004 96.1924 98.5071 95.3291 97.9004C94.4891 97.2704 92.9957 96.6637 90.8491 96.0804C88.0024 95.2871 85.9607 94.3304 84.7241 93.2104C83.4874 92.0904 82.8691 90.6321 82.8691 88.8354C82.8691 86.7587 83.6507 85.1254 85.2141 83.9354C86.8007 82.7454 88.9707 82.1504 91.7241 82.1504C94.0107 82.1504 95.9357 82.6871 97.4991 83.7604C99.0857 84.8337 100.171 86.3271 100.754 88.2404C100.451 88.5437 100.019 88.8121 99.4591 89.0454C98.8991 89.2787 98.3974 89.3954 97.9541 89.3954C97.5574 89.3954 97.2424 89.3137 97.0091 89.1504C96.7757 88.9637 96.5424 88.6604 96.3091 88.2404C95.3757 86.3504 93.8474 85.4054 91.7241 85.4054C88.8074 85.4054 87.3491 86.4321 87.3491 88.4854C87.3491 89.1621 87.4891 89.7221 87.7691 90.1654C88.0491 90.5854 88.5391 90.9704 89.2391 91.3204C89.9391 91.6704 90.9657 92.0554 92.3191 92.4754C94.7224 93.2221 96.5424 93.9221 97.7791 94.5754C99.0157 95.2054 99.8907 95.9054 100.404 96.6754C100.917 97.4221 101.174 98.3787 101.174 99.5454C101.174 101.085 100.777 102.45 99.9841 103.64C99.1907 104.807 98.0591 105.717 96.5891 106.37C95.1424 107.024 93.4507 107.35 91.5141 107.35Z" fill="white"/>
<path d="M137.42 82.5004C137.513 83.0137 137.56 83.4454 137.56 83.7954C137.56 84.4721 137.432 84.9737 137.175 85.3004C136.942 85.6037 136.568 85.7554 136.055 85.7554H130.805V107H126.395V85.7554H119.78V82.5004H137.42Z" fill="white"/>
<path d="M167.211 107.35C160.748 107.35 157.516 104.305 157.516 98.2154V82.5004H161.961V98.8454C161.961 100.572 162.405 101.879 163.291 102.765C164.178 103.629 165.485 104.06 167.211 104.06C168.985 104.06 170.291 103.629 171.131 102.765C171.995 101.902 172.426 100.595 172.426 98.8454V82.5004H176.871V98.2154C176.871 101.319 176.078 103.617 174.491 105.11C172.905 106.604 170.478 107.35 167.211 107.35Z" fill="white"/>
<path d="M206.9 82.5004C210.587 82.5004 213.457 83.5737 215.51 85.7204C217.587 87.8671 218.625 90.8771 218.625 94.7504C218.625 97.2237 218.147 99.3821 217.19 101.225C216.233 103.069 214.868 104.492 213.095 105.495C211.345 106.499 209.28 107 206.9 107H198.955V82.5004H206.9ZM206.41 103.815C208.907 103.815 210.82 103.045 212.15 101.505C213.503 99.9421 214.18 97.7021 214.18 94.7854C214.18 88.7187 211.59 85.6854 206.41 85.6854H203.365V103.815H206.41Z" fill="white"/>
<path d="M240.875 82.5004H245.285V107H240.875V82.5004Z" fill="white"/>
<path d="M277.891 107.35C274.578 107.35 272 106.242 270.156 104.025C268.336 101.785 267.426 98.6471 267.426 94.6104C267.426 90.6437 268.336 87.5754 270.156 85.4054C272 83.2354 274.578 82.1504 277.891 82.1504C281.205 82.1504 283.771 83.2354 285.591 85.4054C287.435 87.5754 288.356 90.6437 288.356 94.6104C288.356 98.6471 287.435 101.785 285.591 104.025C283.771 106.242 281.205 107.35 277.891 107.35ZM277.891 104.025C279.898 104.025 281.38 103.267 282.336 101.75C283.316 100.21 283.806 97.8304 283.806 94.6104C283.806 91.4604 283.328 89.1504 282.371 87.6804C281.415 86.2104 279.921 85.4754 277.891 85.4754C275.861 85.4754 274.368 86.2104 273.411 87.6804C272.455 89.1504 271.976 91.4604 271.976 94.6104C271.976 97.8304 272.455 100.21 273.411 101.75C274.391 103.267 275.885 104.025 277.891 104.025Z" fill="white"/>
<rect y="1.93359" width="18" height="31.0728" fill="#D92B00"/>
<rect y="39.4043" width="18" height="63.9735" fill="#D92B00"/>
<rect x="68.8867" y="107.351" width="17.5749" height="101.171" transform="rotate(-180 68.8867 107.351)" fill="#D92B00"/>
<rect x="43.2305" y="91.2891" width="16.0619" height="43.2303" transform="rotate(90 43.2305 91.2891)" fill="#D92B00"/>
<rect x="25.6602" y="17.9971" width="16.0619" height="43.2303" transform="rotate(-90 25.6602 17.9971)" fill="#D92B00"/>
<rect x="25.6602" y="1.93359" width="17.5749" height="101.171" fill="#D92B00"/>
<path d="M83 75.0002V1.5002H93.8V75.0002H83Z" fill="white"/>
<path d="M101.848 75.0002V1.5002H111.948L121.948 39.8002L122.848 43.2002H123.448V1.5002H133.348V75.0002H124.248L113.248 36.7002L112.348 33.3002H111.748V75.0002H101.848Z" fill="white"/>
<path d="M141.301 75.0002V1.5002H167.001V12.6002H152.101V31.9002H162.101V43.0002H152.101V75.0002H141.301Z" fill="white"/>
<path d="M185.279 75.8002C182.279 75.8002 179.696 75.1002 177.529 73.7002C175.396 72.3002 173.746 70.4002 172.579 68.0002C171.446 65.6002 170.879 62.9002 170.879 59.9002V16.6002C170.879 13.5669 171.446 10.8669 172.579 8.5002C173.746 6.1002 175.396 4.20019 177.529 2.80019C179.696 1.40019 182.279 0.700195 185.279 0.700195C188.279 0.700195 190.846 1.40019 192.979 2.80019C195.146 4.20019 196.796 6.1002 197.929 8.5002C199.096 10.9002 199.679 13.6002 199.679 16.6002V59.9002C199.679 62.9002 199.096 65.6002 197.929 68.0002C196.796 70.4002 195.146 72.3002 192.979 73.7002C190.846 75.1002 188.279 75.8002 185.279 75.8002ZM185.279 65.3002C186.612 65.3002 187.546 64.7502 188.079 63.6502C188.612 62.5169 188.879 61.2669 188.879 59.9002V16.6002C188.879 15.2335 188.596 14.0002 188.029 12.9002C187.462 11.7669 186.546 11.2002 185.279 11.2002C184.046 11.2002 183.129 11.7669 182.529 12.9002C181.962 14.0002 181.679 15.2335 181.679 16.6002V59.9002C181.679 61.2669 181.962 62.5169 182.529 63.6502C183.096 64.7502 184.012 65.3002 185.279 65.3002Z" fill="white"/>
<path d="M207.219 75.0002V1.5002H217.319L227.319 39.8002L228.219 43.2002H228.819V1.5002H238.719V75.0002H229.619L218.619 36.7002L217.719 33.3002H217.119V75.0002H207.219Z" fill="white"/>
<path d="M246.672 75.0002V1.5002H257.472V75.0002H246.672Z" fill="white"/>
<path d="M295.92 80.6002C292.886 80.6002 290.42 79.9502 288.52 78.6502C286.62 77.3502 285.186 75.9335 284.22 74.4002C283.72 74.7669 282.97 75.0835 281.97 75.3502C281.003 75.6502 279.986 75.8002 278.92 75.8002C275.853 75.8002 273.286 75.1002 271.22 73.7002C269.153 72.3002 267.603 70.4002 266.57 68.0002C265.536 65.6002 265.02 62.9002 265.02 59.9002V16.6002C265.02 13.6002 265.586 10.9002 266.72 8.5002C267.886 6.1002 269.553 4.20019 271.72 2.80019C273.886 1.40019 276.453 0.700195 279.42 0.700195C282.42 0.700195 284.986 1.40019 287.12 2.80019C289.286 4.20019 290.936 6.1002 292.07 8.5002C293.236 10.9002 293.82 13.6002 293.82 16.6002V59.9002C293.82 61.8669 293.553 63.6835 293.02 65.3502C292.52 66.9835 291.936 68.2002 291.27 69.0002C291.703 69.7002 292.32 70.2502 293.12 70.6502C293.92 71.0502 294.853 71.3002 295.92 71.4002V80.6002ZM279.42 65.3002C280.753 65.3002 281.686 64.7669 282.22 63.7002C282.753 62.6002 283.02 61.3335 283.02 59.9002V16.6002C283.02 15.2335 282.753 14.0002 282.22 12.9002C281.686 11.7669 280.753 11.2002 279.42 11.2002C278.12 11.2002 277.186 11.7669 276.62 12.9002C276.086 14.0002 275.82 15.2335 275.82 16.6002V59.9002C275.82 61.3335 276.103 62.6002 276.67 63.7002C277.236 64.7669 278.153 65.3002 279.42 65.3002Z" fill="white"/>
</svg>
