<svg width="20" height="20" viewBox="0 0 20 20" fill="none" xmlns="http://www.w3.org/2000/svg">
<path d="M16.6667 3.33301H3.33341C2.41675 3.33301 1.66675 4.08301 1.66675 4.99967V14.9997C1.66675 15.9163 2.41675 16.6663 3.33341 16.6663H16.6667C17.5834 16.6663 18.3334 15.9163 18.3334 14.9997V4.99967C18.3334 4.08301 17.5834 3.33301 16.6667 3.33301ZM16.3334 6.87467L10.8834 10.283C10.3417 10.6247 9.65841 10.6247 9.11675 10.283L3.66675 6.87467C3.58319 6.82777 3.51001 6.76439 3.45166 6.68839C3.3933 6.61238 3.35097 6.52532 3.32723 6.43248C3.30349 6.33964 3.29883 6.24295 3.31355 6.14826C3.32826 6.05357 3.36203 5.96285 3.41282 5.88159C3.4636 5.80033 3.53035 5.73022 3.60902 5.6755C3.68769 5.62079 3.77664 5.5826 3.87049 5.56326C3.96435 5.54391 4.06115 5.54381 4.15504 5.56296C4.24894 5.58212 4.33797 5.62012 4.41675 5.67467L10.0001 9.16634L15.5834 5.67467C15.6622 5.62012 15.7512 5.58212 15.8451 5.56296C15.939 5.54381 16.0358 5.54391 16.1297 5.56326C16.2235 5.5826 16.3125 5.62079 16.3911 5.6755C16.4698 5.73022 16.5366 5.80033 16.5873 5.88159C16.6381 5.96285 16.6719 6.05357 16.6866 6.14826C16.7013 6.24295 16.6967 6.33964 16.6729 6.43248C16.6492 6.52532 16.6069 6.61238 16.5485 6.68839C16.4902 6.76439 16.417 6.82777 16.3334 6.87467Z" fill="white"/>
</svg>
