<svg width="50" height="50" viewBox="0 0 50 50" fill="none" xmlns="http://www.w3.org/2000/svg">
<path d="M25 50C20.0555 50 15.222 48.5338 11.1108 45.7867C6.99952 43.0397 3.79521 39.1352 1.90302 34.5671C0.010832 29.9989 -0.484251 24.9723 0.480379 20.1227C1.44501 15.2732 3.82603 10.8187 7.32234 7.32234C10.8187 3.82603 15.2732 1.44501 20.1227 0.480379C24.9723 -0.484251 29.9989 0.010832 34.5671 1.90302C39.1352 3.79521 43.0397 6.99952 45.7867 11.1108C48.5338 15.222 50 20.0555 50 25C49.9923 31.6281 47.3559 37.9825 42.6692 42.6692C37.9825 47.3559 31.6281 49.9923 25 50ZM25 3.6232C20.7721 3.6232 16.6391 4.87693 13.1237 7.22584C9.60829 9.57475 6.86837 12.9134 5.25041 16.8195C3.63245 20.7256 3.20912 25.0237 4.03395 29.1704C4.85878 33.3171 6.89472 37.1261 9.88432 40.1157C12.8739 43.1053 16.6829 45.1412 20.8296 45.9661C24.9763 46.7909 29.2745 46.3676 33.1806 44.7496C37.0867 43.1316 40.4253 40.3917 42.7742 36.8763C45.1231 33.3609 46.3768 29.2279 46.3768 25C46.3691 19.3329 44.1145 13.9001 40.1072 9.89279C36.1 5.88552 30.6671 3.63087 25 3.6232Z" fill="white"/>
<path d="M13.4217 24.5219C9.36853 24.5266 5.35101 23.7644 1.58117 22.2755C1.34188 22.203 1.12018 22.0817 0.930043 21.9193C0.739905 21.757 0.585439 21.557 0.476368 21.332C0.367297 21.107 0.305983 20.8619 0.296285 20.612C0.286587 20.3622 0.328716 20.113 0.420019 19.8802C0.511322 19.6475 0.649823 19.4361 0.826803 19.2595C1.00378 19.0829 1.21541 18.9448 1.44836 18.8539C1.68132 18.7631 1.93056 18.7215 2.18039 18.7317C2.43022 18.7419 2.67523 18.8037 2.90001 18.9132C6.88022 20.4525 11.15 21.0984 15.4074 20.8054C19.6648 20.5124 23.8059 19.2876 27.5377 17.2175C32.0846 14.6697 35.8521 10.9322 38.4362 6.40593C38.6734 5.98971 39.0658 5.68437 39.5275 5.55672C39.9892 5.42906 40.4827 5.48949 40.9 5.72477C41.3172 5.96473 41.6228 6.35969 41.7504 6.82378C41.878 7.28787 41.8171 7.78355 41.5812 8.20304C38.6707 13.2954 34.4332 17.5028 29.3203 20.3769C24.4634 23.0978 18.9888 24.525 13.4217 24.5219Z" fill="white"/>
<path d="M10.6521 45.0295C10.3819 45.0274 10.1152 44.9681 9.86951 44.8555C9.65539 44.7518 9.4638 44.6069 9.30567 44.4292C9.14755 44.2514 9.02598 44.0442 8.94793 43.8195C8.86987 43.5947 8.83685 43.3568 8.85075 43.1193C8.86465 42.8818 8.92519 42.6494 9.02893 42.4352C12.4682 35.3074 18.395 29.683 25.693 26.6212C32.991 23.5595 41.1567 23.2717 48.6521 25.8121C48.8847 25.8837 49.1005 26.0014 49.2866 26.1582C49.4727 26.315 49.6252 26.5077 49.7352 26.7248C49.8452 26.9419 49.9103 27.179 49.9266 27.4218C49.943 27.6646 49.9102 27.9082 49.8304 28.1381C49.7505 28.3679 49.6251 28.5794 49.4617 28.7597C49.2984 28.9401 49.1003 29.0857 48.8794 29.1878C48.6585 29.2899 48.4193 29.3465 48.1761 29.3542C47.9329 29.3618 47.6906 29.3204 47.4637 29.2324C40.8085 26.979 33.5591 27.2367 27.0806 29.9567C20.6022 32.6768 15.3417 37.6715 12.2898 44.0005C12.1419 44.3092 11.9096 44.5697 11.6198 44.7518C11.3299 44.9339 10.9944 45.0302 10.6521 45.0295Z" fill="white"/>
<path d="M32.6962 48.6813H32.2614C32.0301 48.6252 31.8122 48.5241 31.62 48.3837C31.4278 48.2434 31.2652 48.0665 31.1413 47.8633C31.0175 47.6601 30.9349 47.4344 30.8983 47.1993C30.8618 46.9642 30.8718 46.7241 30.9281 46.4929C31.5679 43.7761 31.8889 40.9941 31.8846 38.203C31.8859 34.4594 31.3041 30.7385 30.1599 27.174C29.3434 24.5901 28.2297 22.1098 26.8411 19.7827C23.4926 14.1135 18.6626 9.46381 12.8701 6.33344C12.4473 6.10474 12.1326 5.71745 11.9954 5.25676C11.8581 4.79607 11.9095 4.29973 12.1382 3.87692C12.3669 3.45411 12.7542 3.13947 13.2149 3.00222C13.6756 2.86496 14.1719 2.91633 14.5947 3.14504C20.9549 6.57082 26.2648 11.6603 29.957 17.8697C31.4906 20.4335 32.7211 23.1668 33.6237 26.0146C34.8741 29.9416 35.5096 34.0383 35.5078 38.1595C35.515 41.234 35.1599 44.2986 34.4498 47.29C34.3533 47.6836 34.1286 48.0339 33.8112 48.2858C33.4937 48.5377 33.1014 48.6768 32.6962 48.6813Z" fill="white"/>
</svg>
