<svg width="80" height="50" viewBox="0 0 80 50" fill="none" xmlns="http://www.w3.org/2000/svg">
<path d="M22.3407 40.7211C23.4041 40.7211 24.4164 40.6267 25.3683 40.4133C26.3352 40.2037 27.1908 39.8674 27.9161 39.3726C28.6375 38.8966 29.2381 38.2432 29.6725 37.4159C30.1088 36.5926 30.3184 35.5235 30.3184 34.2336C30.3184 31.7047 29.6045 29.9067 28.1899 28.817C26.7697 27.7405 24.8791 27.2061 22.5542 27.2061H10.8049V40.7211H22.3407ZM21.7421 19.829C23.6553 19.829 25.2418 19.3756 26.4977 18.4539C27.7405 17.5455 28.3409 16.0479 28.3409 13.9893C28.3409 12.8485 28.1427 11.9042 27.7405 11.1715C27.3229 10.4387 26.7697 9.8664 26.0746 9.46401C25.3834 9.04666 24.6014 8.75959 23.6969 8.60281C22.8053 8.42904 21.8743 8.3611 20.9168 8.3611H10.8049V19.829H21.7421ZM23.1397 0C25.4872 0 27.6063 0.202131 29.5422 0.623381C31.4686 1.03123 33.1098 1.71305 34.4999 2.64797C35.8673 3.58288 36.9381 4.82559 37.7049 6.39121C38.4509 7.93424 38.8268 9.86641 38.8268 12.1497C38.8268 14.62 38.2676 16.6843 37.144 18.335C36.0146 19.9819 34.3544 21.3322 32.139 22.3823C35.1553 23.2512 37.3952 24.7791 38.8778 26.953C40.368 29.1418 41.0987 31.7595 41.0987 34.8305C41.0987 37.3196 40.6229 39.4614 39.6692 41.265C38.7077 43.0895 37.399 44.5683 35.786 45.7091C34.1599 46.8592 32.2958 47.7053 30.2033 48.255C28.1352 48.8026 25.9878 49.0803 23.7856 49.0803H0V0H23.1397Z" fill="white"/>
<path d="M67.7176 21.8859C66.5561 20.6034 64.5937 19.9085 62.1971 19.9085C60.6371 19.9085 59.3471 20.171 58.312 20.7055C57.2998 21.2343 56.4726 21.8896 55.8398 22.664C55.209 23.4496 54.7823 24.2808 54.531 25.1683C54.2817 26.0334 54.1307 26.8171 54.0872 27.5103H69.9669C69.7347 25.021 68.8828 23.1795 67.7176 21.8859ZM56.5009 40.5589C57.9646 41.9868 60.0779 42.7045 62.8166 42.7045C64.7844 42.7045 66.4842 42.2078 67.9121 41.2143C69.3267 40.2228 70.1879 39.1632 70.5203 38.064H79.1173C77.7348 42.3418 75.6404 45.3958 72.7791 47.2353C69.9518 49.0806 66.507 50.0002 62.4897 50.0002C59.6908 50.0002 57.1714 49.547 54.9088 48.6556C52.648 47.7509 50.7594 46.4854 49.1692 44.833C47.6204 43.1746 46.4174 41.2143 45.56 38.912C44.712 36.621 44.2852 34.0847 44.2852 31.3366C44.2852 28.6793 44.729 26.1976 45.5977 23.903C46.4816 21.6007 47.7092 19.6138 49.3202 17.9481C50.9351 16.2728 52.8482 14.9508 55.0768 13.9837C57.3073 13.0225 59.7664 12.5391 62.4897 12.5391C65.4965 12.5391 68.1273 13.1169 70.3861 14.2954C72.6337 15.4588 74.4789 17.0339 75.9275 19.0057C77.3742 20.9737 78.4073 23.2249 79.0513 25.7501C79.6896 28.2713 79.9143 30.9042 79.7312 33.6615H54.0872C54.0872 36.4719 55.0354 39.1311 56.5009 40.5589Z" fill="white"/>
<path d="M71.9829 3.29395H52.0879V8.13637H71.9829V3.29395Z" fill="white"/>
</svg>
